<svg width="1000" xmlns="http://www.w3.org/2000/svg" height="1000" id="screenshot-c5d27549-c440-80b8-8007-1550ff2932f2" viewBox="0 0 1000 1000" xmlns:xlink="http://www.w3.org/1999/xlink" fill="none" version="1.1"><g id="shape-c5d27549-c440-80b8-8007-1550ff2932f2" rx="0" ry="0"><g id="shape-c5d27549-c440-80b8-8007-154fc19b9f36"><g class="fills" id="fills-c5d27549-c440-80b8-8007-154fc19b9f36"><rect rx="100" ry="100" x="0" y="0" transform="matrix(1.000000, 0.000000, 0.000000, 1.000000, 0.000000, 0.000000)" width="1000" height="1000.0000000000001" style="fill: rgb(0, 0, 0); fill-opacity: 1;"/></g></g><g id="shape-c5d27549-c440-80b8-8007-154fe5f6baf5" rx="0" ry="0"><g id="shape-c5d27549-c440-80b8-8007-154d32c16f11"><g class="fills" id="fills-c5d27549-c440-80b8-8007-154d32c16f11"><path d="M249,834L253.893310546875,167L724.8734130859375,169.4477081298828L742,821.761474609375"/></g><g id="strokes-203ac5de-b552-8018-8007-15510f574b53-c5d27549-c440-80b8-8007-154d32c16f11" class="strokes"><g class="stroke-shape"><path d="M249,834L253.893310546875,167L724.8734130859375,169.4477081298828L742,821.761474609375" style="fill: none; stroke-width: 15; stroke: rgb(255, 255, 255); stroke-opacity: 1;"/></g></g></g><g id="shape-c5d27549-c440-80b8-8007-154d731902f5"><g class="fills" id="fills-c5d27549-c440-80b8-8007-154d731902f5"><path d="M400,431C400,431,428.03900146484375,447.6257019042969,484.33331298828125,447.9910583496094C552.7056274414062,448.434814453125,587,432.2136535644531,587,432.2136535644531"/></g><g id="strokes-203ac5de-b552-8018-8007-15510f581f28-c5d27549-c440-80b8-8007-154d731902f5" class="strokes"><g class="stroke-shape"><path d="M400,431C400,431,428.03900146484375,447.6257019042969,484.33331298828125,447.9910583496094C552.7056274414062,448.434814453125,587,432.2136535644531,587,432.2136535644531" style="fill: none; stroke-width: 15; stroke: rgb(255, 255, 255); stroke-opacity: 1;"/></g></g></g><g id="shape-c5d27549-c440-80b8-8007-154e0c0327f6"><g class="fills" id="fills-c5d27549-c440-80b8-8007-154e0c0327f6"><path d="M738,679L679.028564453125,710L609,691.4000244140625"/></g><g id="strokes-203ac5de-b552-8018-8007-15510f58b5d4-c5d27549-c440-80b8-8007-154e0c0327f6" class="strokes"><g class="stroke-shape"><path d="M738,679L679.028564453125,710L609,691.4000244140625" style="fill: none; stroke-width: 15; stroke: rgb(255, 255, 255); stroke-opacity: 1;"/></g></g></g><g id="shape-c5d27549-c440-80b8-8007-154e2b55bd77"><g class="fills" id="fills-c5d27549-c440-80b8-8007-154e2b55bd77"><path d="M249,679L307.75860595703125,703L391,679"/></g><g id="strokes-203ac5de-b552-8018-8007-15510f58e510-c5d27549-c440-80b8-8007-154e2b55bd77" class="strokes"><g class="stroke-shape"><path d="M249,679L307.75860595703125,703L391,679" style="fill: none; stroke-width: 15; stroke: rgb(255, 255, 255); stroke-opacity: 1;"/></g></g></g><g id="shape-c5d27549-c440-80b8-8007-154dd8f97eb3" rx="0" ry="0"><g id="shape-c5d27549-c440-80b8-8007-154d9698a560"><g class="fills" id="fills-c5d27549-c440-80b8-8007-154d9698a560"><ellipse cx="405.99999999999994" cy="299" rx="29.999999999999943" ry="30" transform="matrix(1.000000, 0.000000, 0.000000, 1.000000, 0.000000, 0.000000)"/></g><g id="strokes-203ac5de-b552-8018-8007-15510f59acf1-c5d27549-c440-80b8-8007-154d9698a560" class="strokes"><g class="inner-stroke-shape" transform="matrix(1.000000, 0.000000, 0.000000, 1.000000, 0.000000, 0.000000)"><defs><clipPath id="inner-stroke-render-9-c5d27549-c440-80b8-8007-154d9698a560-0"><use href="#stroke-shape-render-9-c5d27549-c440-80b8-8007-154d9698a560-0"/></clipPath><ellipse cx="405.99999999999994" cy="299" rx="29.999999999999943" ry="30" id="stroke-shape-render-9-c5d27549-c440-80b8-8007-154d9698a560-0" style="fill: none; stroke-width: 14; stroke: rgb(255, 255, 255); stroke-opacity: 1;"/></defs><use href="#stroke-shape-render-9-c5d27549-c440-80b8-8007-154d9698a560-0" clip-path="url('#inner-stroke-render-9-c5d27549-c440-80b8-8007-154d9698a560-0')"/></g></g></g><g id="shape-c5d27549-c440-80b8-8007-154da55b7e13"><g class="fills" id="fills-c5d27549-c440-80b8-8007-154da55b7e13"><ellipse cx="409.67346938775535" cy="309.40816326530614" rx="10.4081632653062" ry="10.408163265306115" transform="matrix(1.000000, 0.000000, 0.000000, 1.000000, 0.000000, 0.000000)" style="fill: rgb(255, 255, 255); fill-opacity: 1;"/></g></g></g><g id="shape-c5d27549-c440-80b8-8007-154ddb5c5b9e" rx="0" ry="0"><g id="shape-c5d27549-c440-80b8-8007-154ddb5c5b9f"><g class="fills" id="fills-c5d27549-c440-80b8-8007-154ddb5c5b9f"><ellipse cx="562.9999999999999" cy="300" rx="29.999999999999886" ry="30" transform="matrix(1.000000, 0.000000, 0.000000, 1.000000, 0.000000, 0.000000)"/></g><g id="strokes-203ac5de-b552-8018-8007-15510f5a7afa-c5d27549-c440-80b8-8007-154ddb5c5b9f" class="strokes"><g class="inner-stroke-shape" transform="matrix(1.000000, 0.000000, 0.000000, 1.000000, 0.000000, 0.000000)"><defs><clipPath id="inner-stroke-render-12-c5d27549-c440-80b8-8007-154ddb5c5b9f-0"><use href="#stroke-shape-render-12-c5d27549-c440-80b8-8007-154ddb5c5b9f-0"/></clipPath><ellipse cx="562.9999999999999" cy="300" rx="29.999999999999886" ry="30" id="stroke-shape-render-12-c5d27549-c440-80b8-8007-154ddb5c5b9f-0" style="fill: none; stroke-width: 14; stroke: rgb(255, 255, 255); stroke-opacity: 1;"/></defs><use href="#stroke-shape-render-12-c5d27549-c440-80b8-8007-154ddb5c5b9f-0" clip-path="url('#inner-stroke-render-12-c5d27549-c440-80b8-8007-154ddb5c5b9f-0')"/></g></g></g><g id="shape-c5d27549-c440-80b8-8007-154ddb5c5ba0"><g class="fills" id="fills-c5d27549-c440-80b8-8007-154ddb5c5ba0"><ellipse cx="559.9387755102043" cy="311.0204081632653" rx="10.408163265306257" ry="10.408163265306143" transform="matrix(1.000000, 0.000000, 0.000000, 1.000000, 0.000000, 0.000000)" style="fill: rgb(255, 255, 255); fill-opacity: 1;"/></g></g></g><g id="shape-c5d27549-c440-80b8-8007-154f5e36e938" filter="url(#filter-render-14)" rx="0" ry="0" style="fill: rgb(0, 0, 0);"><defs><filter id="filter-render-14" x="-0.574468085106383" y="-0.574468085106383" width="2.2" height="2.2" filterUnits="objectBoundingBox" color-interpolation-filters="sRGB"><feFlood flood-opacity="0" result="BackgroundImageFix"/><feColorMatrix in="SourceAlpha" type="matrix" values="0 0 0 0 0 0 0 0 0 0 0 0 0 0 0 0 0 0 127 0"/><feMorphology radius="10" operator="dilate" in="SourceAlpha" result="filter_c5d27549-c440-80b8-8007-1550b5e4028d"/><feOffset dx="4" dy="4"/><feGaussianBlur stdDeviation="15"/><feColorMatrix type="matrix" values="0 0 0 0 0.023529411764705882 0 0 0 0 0.48627450980392156 0 0 0 0 0.6274509803921569 0 0 0 0.2 0"/><feBlend mode="normal" in2="BackgroundImageFix" result="filter_c5d27549-c440-80b8-8007-1550b5e4028d"/><feBlend mode="normal" in="SourceGraphic" in2="filter_c5d27549-c440-80b8-8007-1550b5e4028d" result="shape"/></filter><filter id="filter-shadow-render-14" x="-0.574468085106383" y="-0.574468085106383" width="2.2" height="2.2" filterUnits="objectBoundingBox" color-interpolation-filters="sRGB"><feFlood flood-opacity="0" result="BackgroundImageFix"/><feColorMatrix in="SourceAlpha" type="matrix" values="0 0 0 0 0 0 0 0 0 0 0 0 0 0 0 0 0 0 127 0"/><feMorphology radius="10" operator="dilate" in="SourceAlpha" result="filter_c5d27549-c440-80b8-8007-1550b5e4028d"/><feOffset dx="4" dy="4"/><feGaussianBlur stdDeviation="15"/><feColorMatrix type="matrix" values="0 0 0 0 0.023529411764705882 0 0 0 0 0.48627450980392156 0 0 0 0 0.6274509803921569 0 0 0 0.2 0"/><feBlend mode="normal" in2="BackgroundImageFix" result="filter_c5d27549-c440-80b8-8007-1550b5e4028d"/><feBlend mode="normal" in="SourceGraphic" in2="filter_c5d27549-c440-80b8-8007-1550b5e4028d" result="shape"/></filter></defs><g id="shape-c5d27549-c440-80b8-8007-154f5e37a978" style="display: none;"><g class="fills" id="fills-c5d27549-c440-80b8-8007-154f5e37a978"><rect width="235" height="235" x="385" transform="matrix(1.000000, 0.000000, 0.000000, 1.000000, 0.000000, 0.000000)" style="fill: none;" ry="0" fill="none" rx="0" y="526"/></g></g><g id="shape-c5d27549-c440-80b8-8007-154f5e3808e1"><g class="fills" id="fills-c5d27549-c440-80b8-8007-154f5e3808e1"><path d="M478.14080810546875,606.36083984375L422.68267822265625,703.0358276367188L409.73553466796875,680.9439086914062L424.68017578125,655.0516967773438L394.99859619140625,654.974609375L388.671875,643.9351196289062L395.13262939453125,632.6441650390625L437.3829345703125,632.778076171875L452.566162109375,606.4287109375L478.14080810546875,606.36083984375ZM482.39642333984375,683.6427612304688L593.3035888671875,683.6482543945312L580.769775390625,705.9805908203125L551.018310546875,705.8980102539062L565.7921142578125,731.812255859375L559.4580688476562,742.8462524414062L546.5147705078125,742.8609619140625L525.5025024414062,705.964111328125L495.24072265625,705.9017333984375L482.39642333984375,683.6427612304688ZM546.947998046875,641.2803344726562L491.4990234375,544.5999145507812L516.98193359375,544.359375L531.7849731445312,570.3342895507812L546.69287109375,544.4989013671875L559.3553466796875,544.5025634765625L565.83984375,555.78076171875L544.5980834960938,592.5435791015625L559.6765747070312,618.955322265625L546.947998046875,641.2803344726562Z" clip-rule="evenodd" fill-rule="evenodd" style="fill: rgb(126, 186, 228);"/></g></g><g id="shape-c5d27549-c440-80b8-8007-154f5e3808e2"><g class="fills" id="fills-c5d27549-c440-80b8-8007-154f5e3808e2"><path d="M458.12725830078125,646.18603515625L513.5762329101562,742.866455078125L488.0933837890625,743.10693359375L473.2901611328125,717.1321411132812L458.38238525390625,742.9674682617188L445.719970703125,742.9637451171875L439.2354736328125,731.685546875L460.4771728515625,694.9227294921875L445.39874267578125,668.510986328125L458.12725830078125,646.18603515625ZM522.5319213867188,603.579345703125L411.624755859375,603.5738525390625L424.16046142578125,581.243408203125L453.9100341796875,581.3259887695312L439.13623046875,555.4116821289062L445.47027587890625,544.3777465820312L458.41552734375,544.359375L479.42596435546875,581.2561645507812L509.6895751953125,581.318603515625L522.5336303710938,603.5775146484375ZM526.8591918945312,681.085205078125L582.3173217773438,584.4085083007812L595.2644653320312,606.502197265625L580.318115234375,632.392578125L610.00146484375,632.4715576171875L616.328125,643.510986328125L609.8675537109375,654.802001953125L567.6170654296875,654.6680297851562L552.433837890625,681.0174560546875L526.8591918945312,681.085205078125Z" clip-rule="evenodd" fill-rule="evenodd" style="fill: rgb(82, 119, 195);"/></g></g></g></g></g></svg>